<?xml version="1.0" encoding="utf-8"?>
<!-- Generator: Adobe Illustrator 23.0.2, SVG Export Plug-In . SVG Version: 6.00 Build 0)  -->
<svg version="1.1" id="Layer_1" xmlns="http://www.w3.org/2000/svg" xmlns:xlink="http://www.w3.org/1999/xlink" x="0px" y="0px"
	 viewBox="0 0 249.7 276.1" style="enable-background:new 0 0 249.7 276.1;" xml:space="preserve">
<style type="text/css">
	.st0{fill:#45E297;}
</style>
<path class="st0" d="M228.1,192.7c0,0,0-0.1,0-0.1h-24.9c-2.7-3.2-5.7-6.2-9-8.8c0,0,0,0,0,0c-0.6-0.4-1.1-0.9-1.7-1.3v-5.2
	c0-5.9-2.3-11.6-6.5-15.7l-0.5-0.4c12.9-11.4,22.3-26.2,27.2-42.8h11.9c1.2,0,2.3-0.5,3.1-1.3c0.9-0.9,1.3-2,1.3-3.2V69.4
	c0-1.2-0.5-2.3-1.3-3.1c-0.8-0.9-2-1.3-3.1-1.3h-12.2c-12.2-39.5-48.4-64.8-87.6-65c-9.1,0-18.4,1.3-27.5,4.1
	C68,13.1,45.3,35.9,36.3,65H24c-1.2,0-2.3,0.4-3.2,1.3c-0.9,0.8-1.3,2-1.3,3.1v45c0,1.2,0.4,2.3,1.3,3.2c0.8,0.8,2,1.3,3.2,1.3h11.8
	c0.6,2,1.3,3.9,2,5.8c-14.8,19.4-20.7,44.2-16.3,68.1C9.5,193-0.1,202.9,0,214.9v61.2h249.7v-61.2
	C249.7,202.9,240.1,193,228.1,192.7z M62.9,161.5c-4.2,4.2-6.6,9.8-6.6,15.7v5.3c-3.6,2.4-6.9,5.3-9.8,8.4
	c-3.5-14.3-1.7-29.3,5.1-42.4c3.5,4.5,7.5,8.7,11.8,12.5C63.4,161.1,63,161.1,62.9,161.5z"/>
</svg>
