<svg id="Layer_1" data-name="Layer 1" xmlns="http://www.w3.org/2000/svg" xmlns:xlink="http://www.w3.org/1999/xlink" viewBox="0 0 324.07 336.41"><defs><style>.cls-1,.cls-3,.cls-4,.cls-5{fill:#45e297;}.cls-1{opacity:0.27;}.cls-1,.cls-10,.cls-11,.cls-12,.cls-13,.cls-14,.cls-15,.cls-16,.cls-17,.cls-2,.cls-4,.cls-5,.cls-6,.cls-7,.cls-8{isolation:isolate;}.cls-10,.cls-11,.cls-12,.cls-13,.cls-14,.cls-15,.cls-16,.cls-17,.cls-2,.cls-6,.cls-7,.cls-8{opacity:0.25;}.cls-2{fill:url(#linear-gradient);}.cls-5{opacity:0.49;}.cls-6{fill:url(#linear-gradient-2);}.cls-20,.cls-7{fill:#fff;}.cls-8{fill:url(#linear-gradient-3);}.cls-9{fill:url(#linear-gradient-4);}.cls-10{fill:url(#linear-gradient-5);}.cls-11{fill:url(#linear-gradient-6);}.cls-12{fill:url(#linear-gradient-7);}.cls-13{fill:url(#linear-gradient-8);}.cls-14{fill:url(#linear-gradient-9);}.cls-15{fill:url(#linear-gradient-10);}.cls-16{fill:url(#linear-gradient-11);}.cls-17{fill:url(#linear-gradient-12);}.cls-18{fill:url(#linear-gradient-13);}.cls-19{fill:url(#linear-gradient-14);}</style><linearGradient id="linear-gradient" x1="240.97" y1="301.08" x2="158.76" y2="177.2" gradientTransform="matrix(1, 0, 0, -1, -54.13, 335.04)" gradientUnits="userSpaceOnUse"><stop offset="0" stop-opacity="0"/><stop offset="0.91" stop-opacity="0.8"/><stop offset="1"/></linearGradient><linearGradient id="linear-gradient-2" x1="207.8" y1="217.11" x2="192.04" y2="58.31" xlink:href="#linear-gradient"/><linearGradient id="linear-gradient-3" x1="171.87" y1="235.47" x2="229.13" y2="235.47" xlink:href="#linear-gradient"/><linearGradient id="linear-gradient-4" x1="123.52" y1="159.47" x2="50.03" y2="94.71" xlink:href="#linear-gradient"/><linearGradient id="linear-gradient-5" x1="149.42" y1="115.43" x2="201.75" y2="115.43" xlink:href="#linear-gradient"/><linearGradient id="linear-gradient-6" x1="178.28" y1="174.89" x2="231.72" y2="174.89" xlink:href="#linear-gradient"/><linearGradient id="linear-gradient-7" x1="309.4" y1="197.16" x2="306.86" y2="166.19" xlink:href="#linear-gradient"/><linearGradient id="linear-gradient-8" x1="326.51" y1="213.91" x2="321.44" y2="170.55" xlink:href="#linear-gradient"/><linearGradient id="linear-gradient-9" x1="104.15" y1="137.57" x2="132.62" y2="137.57" xlink:href="#linear-gradient"/><linearGradient id="linear-gradient-10" x1="226.41" y1="88.95" x2="292.74" y2="88.95" xlink:href="#linear-gradient"/><linearGradient id="linear-gradient-11" x1="287.36" y1="195.21" x2="227.11" y2="167.05" xlink:href="#linear-gradient"/><linearGradient id="linear-gradient-12" x1="193.65" y1="214.88" x2="200.6" y2="238.16" xlink:href="#linear-gradient"/><linearGradient id="linear-gradient-13" x1="159.49" y1="313.27" x2="346.83" y2="357.4" gradientTransform="matrix(0.99, 0.14, 0.14, -0.99, -122.31, 353.04)" gradientUnits="userSpaceOnUse"><stop offset="0" stop-color="#fff" stop-opacity="0"/><stop offset="1" stop-color="#fff"/></linearGradient><linearGradient id="linear-gradient-14" x1="196.15" y1="329.6" x2="200.28" y2="292.24" gradientTransform="matrix(0.99, 0.16, 0.16, -0.99, -101.49, 299.89)" xlink:href="#linear-gradient-13"/></defs><title>astronaut</title><path class="cls-1" d="M294.72,184.47c3.33,18.69,44.26,44.74-7.26,109.55-29.92,37.64-67.14,17.83-76,20.38-14.24,4.1-26.5,20.3-41.28,21.21-16.8,1-105.72,6.68-142.59-35.21a62.3,62.3,0,0,1-7.7-10.82C5.66,264.24,64.22,255.73,7.5,197c-10.61-11-16-82.63,26.18-105.8,23.52-12.9,11.19-19,50.19-67.71,21.66-27,73.36-30.36,99.64-11.81q4.1,2.89,8,5.42C252.87,57,281,34.71,311.64,78.64,348.76,131.85,290.39,160.22,294.72,184.47Z" transform="translate(0.02 -0.01)"/><path class="cls-1" d="M224.38,220.79c-4.46,18.45,22.55,58.75-50.66,97.4C131.2,340.64,105.07,307.54,96,306.33c-14.68-2-32.42,7.95-46.32,2.83-3.89-1.43-11.9-4.36-22-8.76a62.3,62.3,0,0,1-7.7-10.82C5.71,264.24,64.27,255.73,7.55,197c-10.61-11-16-82.63,26.18-105.8,23.47-12.9,11.14-19,50.14-67.71,21.66-27,73.36-30.36,99.64-11.81q4.1,2.89,8,5.42l.47.76c42.38,70.26,79.6,58.07,90.45,112.83C295,194.31,230.16,196.84,224.38,220.79Z" transform="translate(0.02 -0.01)"/><path class="cls-2" d="M164.92,15.47S197.43,57.39,162,93.16l13,7.2S195.61,80.79,193.92,61,189.43,30.94,164.92,15.47Z" transform="translate(0.02 -0.01)"/><path class="cls-1" d="M88.05,72.14c.75,29.21,0,36.1,0,36.1s-54.32,24.93-54.32,61.53S50,225.26,50,225.26s17.64-1.34,21.91-9.78S69.4,172,69.4,172l18.39-8.16s-2.57,34.74,11.81,61.46,24.17,47.86,19.27,59.25-6.52,26.87-6.52,26.87l16.35,17.37s7.68,6.26,16.63-5,3.52-61.66,5.51-64.2S162,233.63,162,233.63s12.75-6.16,21.2.59,19.11,40.54,22.23,43.07,10.8,24,10.8,24l22.36,3.05,4.58-12.08-20.34-36.58-2.66-34.93-9.15-15.38-36.58-22.71-2.23-26.36s33.92,22.4,44,23.12,41.29-3.14,41.29-3.14l15-12.53-22.88-3.66-44.17-9.59-43.43-29.8L136.27,63.88l1-16.45S87.3,42.93,88.05,72.14Z" transform="translate(0.02 -0.01)"/><path class="cls-3" d="M126.48,294s-11.25,12.19-6.43,18.24,26.83,18.6,32.5,16.18,5.25-10.5,1.71-15.89-7.56-11-7.56-11Z" transform="translate(0.02 -0.01)"/><path class="cls-3" d="M228.55,277.5s-.22,11.08,4.25,16.52,38.64-7,39.59-11.64-4.47-9.82-13.41-9.94a36.34,36.34,0,0,1-14.72-3S227.63,268.67,228.55,277.5Z" transform="translate(0.02 -0.01)"/><path class="cls-4" d="M112.61,109.37l-5.66,7C99.63,110.42,95.66,103.23,95.16,95c-.91-14.87,10-28.23,13-31.66a6.5,6.5,0,0,0-.41,2.29,6.72,6.72,0,0,0,4.88,6.46c-3.51,4.63-9.06,13.45-8.49,22.39C104.5,100.15,107.27,105,112.61,109.37Z" transform="translate(0.02 -0.01)"/><path class="cls-5" d="M197.71,59a49,49,0,1,1,0-.14Z" transform="translate(0.02 -0.01)"/><path class="cls-3" d="M175,100.36A49.09,49.09,0,0,1,117.74,97s12-6.44,31-5.87C164.38,91.68,175,97.66,175,100.36Z" transform="translate(0.02 -0.01)"/><path class="cls-3" d="M254.2,160.13h0a18.66,18.66,0,0,1-13.2,8,86.29,86.29,0,0,1-15.33.4c-24.81-1.41-47.37-26.8-47.37-26.8s.68,31.38,7.68,38.64,26.94,8.46,39.69,15.28c13.67,7.32,18.88,40.9,21,59.82,1.68,15.22.38,20.6-8,24-5.65,2.3-11.28,1.27-12.86-10.4-6.68-49.47-42.54-44.65-50.16-48.28-1.43-.68-2.5-.65-3.31-.06-1.88,1.37-2.28,5.78-2.28,11.24,0,4.65.29,10.06.21,15-.23,13.19-9.14,41.31-21.49,52.87-4,3.78-7.94,4.85-11.36,4.58a16.63,16.63,0,0,1-8.68-3.6,6.31,6.31,0,0,1-2.22-6.71c2.69-9.62,7.8-37.44-11.85-66.53-24.32-36-18.78-87.9-18.78-87.9s-13,8.51-19.94,14.53.12,25.62-1.48,31.18c-3.74,12.92-19.67,11.29-19.67,11.29a13,13,0,0,1-9.9-5.07h0C40.72,186.43,37.76,176,42.35,155c8.42-38.49,63.18-54.67,73.73-57.45,1.14-.3,1.76-.44,1.76-.44l57.26,3.28s39.71,31.26,53.33,36.51a33,33,0,0,0,18.9,1.24,8,8,0,0,1,9.47,5.74l.18.66A18.77,18.77,0,0,1,254.2,160.13Z" transform="translate(0.02 -0.01)"/><path class="cls-6" d="M254.2,160.13h0a18.66,18.66,0,0,1-13.2,8,86.29,86.29,0,0,1-15.33.4c-24.81-1.41-47.37-26.8-47.37-26.8s.68,31.38,7.68,38.64,26.94,8.46,39.69,15.28c13.67,7.32,18.88,40.9,21,59.82,1.68,15.22.38,20.6-8,24-5.65,2.3-11.28,1.27-12.86-10.4-6.68-49.47-42.54-44.65-50.16-48.28-1.43-.68-2.5-.65-3.31-.06-1.88,1.37-2.28,5.78-2.28,11.24,0,4.65.29,10.06.21,15-.23,13.19-9.14,41.31-21.49,52.87-4,3.78-7.94,4.85-11.36,4.58a16.63,16.63,0,0,1-8.68-3.6,6.31,6.31,0,0,1-2.22-6.71c2.69-9.62,7.8-37.44-11.85-66.53-24.32-36-18.78-87.9-18.78-87.9s-13,8.51-19.94,14.53.12,25.62-1.48,31.18c-3.74,12.92-19.67,11.29-19.67,11.29a13,13,0,0,1-9.9-5.07h0C40.72,186.43,37.76,176,42.35,155c8.42-38.49,63.18-54.67,73.73-57.45,1.14-.3,1.76-.44,1.76-.44l57.26,3.28s39.71,31.26,53.33,36.51a33,33,0,0,0,18.9,1.24,8,8,0,0,1,9.47,5.74l.18.66A18.77,18.77,0,0,1,254.2,160.13Z" transform="translate(0.02 -0.01)"/><path class="cls-7" d="M118.87,105.69S71.25,122,64.27,140.78,56,172.73,56,172.73L44.87,191.61h0C40.69,186.43,37.73,176,42.32,155c8.42-38.49,63.18-54.67,73.73-57.45Z" transform="translate(0.02 -0.01)"/><path class="cls-8" d="M175,100.36A49.09,49.09,0,0,1,117.74,97s12-6.44,31-5.87C164.38,91.68,175,97.66,175,100.36Z" transform="translate(0.02 -0.01)"/><path class="cls-9" d="M44.87,191.61S44.72,173.16,59.64,172s14.8,13.36,14.8,13.36-7.58,13.78-19.67,11.29C47.12,195.11,44.87,191.61,44.87,191.61Z" transform="translate(0.02 -0.01)"/><path class="cls-10" d="M137.36,304.42a16.59,16.59,0,0,1-8.51-3.47,6.5,6.5,0,0,1-2.37-6.93c2.7-9.69,7.72-37.43-11.87-66.44-24.32-36-18.78-87.9-18.78-87.9s16.14-9.16,19.54-2.37-6.63,11.22.8,40.23,16.38,46.46,26.17,64.34S147.06,301.53,137.36,304.42Z" transform="translate(0.02 -0.01)"/><path class="cls-11" d="M134.87,132.9s24.86-2.93,31.62-.94,6.76,38.61,10.59,48c0,0,2.2,1.49-2.52,2.77s-29,8.3-33.45,5.74-9.13-15.75-11.8-24.26-6.93-25.55-4.38-28.53S134.87,132.9,134.87,132.9Z" transform="translate(0.02 -0.01)"/><path class="cls-12" d="M254,139.68s-4.25-.57-5.67,5.18-.15,13.78,1.34,15.28,1.5,2.12,4.58,0,6.7-9.56,6.7-9.56S261.54,138.51,254,139.68Z" transform="translate(0.02 -0.01)"/><path class="cls-3" d="M254,139.68c.35,4.07-2.28,12.84,0,15.67s25.48.26,31.44-15.67-2.56-14.55-4.58-14.34-15,8.73-15,8.73,6.71-5.32,3.73-7.45S253.6,135.6,254,139.68Z" transform="translate(0.02 -0.01)"/><path class="cls-13" d="M254,139.68c.35,4.07-2.28,12.84,0,15.67s25.48.26,31.44-15.67-2.56-14.55-4.58-14.34-15,8.73-15,8.73,6.71-5.32,3.73-7.45S253.6,135.6,254,139.68Z" transform="translate(0.02 -0.01)"/><path class="cls-3" d="M51.17,188.93s3.58-12.44,13.52-8.79S78.54,194.56,78.49,195s-1.11,5.73-5.57,2.87-5.37-1.84-5.26-1.35,3.6,9.15,8.55,10.49.49,8.49-4.28,8.44-15.2-3.59-16.28-5.3S47.23,197.33,51.17,188.93Z" transform="translate(0.02 -0.01)"/><path class="cls-14" d="M51.17,188.93s3.58-12.44,13.52-8.79S78.54,194.56,78.49,195s-1.11,5.73-5.57,2.87-5.37-1.84-5.26-1.35,3.6,9.15,8.55,10.49.49,8.49-4.28,8.44-15.2-3.59-16.28-5.3S47.23,197.33,51.17,188.93Z" transform="translate(0.02 -0.01)"/><path class="cls-15" d="M238.61,279.48c-5.65,2.3-11.28,1.27-12.86-10.4-6.68-49.47-42.54-44.65-50.16-48.28-1.43-.68-2.5-.65-3.31-.06,0,0,2.13-7.52,10.07-8.66s33.64,0,37.89,8.72S238.24,256.21,238.61,279.48Z" transform="translate(0.02 -0.01)"/><path class="cls-16" d="M254.2,160.13h0a18.66,18.66,0,0,1-13.2,8,86.29,86.29,0,0,1-15.33.4c-24.81-1.41-47.37-26.8-47.37-26.8C178,135,181,131.28,181,131.28s21.39,18.79,38.57,25.16S255,149.5,254.2,160.13Z" transform="translate(0.02 -0.01)"/><path class="cls-3" d="M115.37,95.78s-3.54,1.16-3,3.88,18.5,17.49,40.54,14.22,25.37-11,25.37-11,.83-3.32-3.3-2.57S138.65,114,115.37,95.78Z" transform="translate(0.02 -0.01)"/><path class="cls-17" d="M115.37,95.78s-3.54,1.16-3,3.88,18.5,17.49,40.54,14.22,25.37-11,25.37-11,.83-3.32-3.3-2.57S138.65,114,115.37,95.78Z" transform="translate(0.02 -0.01)"/><path class="cls-18" d="M125.7,96.57c3.25.43,4.85-2,5.62-5a15.23,15.23,0,0,0-2.21-12.35c-4.65-6.89-12.55-22.55-2.39-38.85,13.61-21.83-3.47-19.41-9-13.54C85.75,61,118.11,95.57,125.7,96.57Z" transform="translate(0.02 -0.01)"/><ellipse class="cls-19" cx="143.55" cy="19.18" rx="9.65" ry="5.87" transform="matrix(0.99, -0.16, 0.16, 0.99, -1.21, 22.88)"/><circle class="cls-20" cx="68.19" cy="89.83" r="3.92"/><circle class="cls-20" cx="220.53" cy="70.33" r="1.69"/><circle class="cls-20" cx="227.76" cy="107.97" r="2.91"/><circle class="cls-20" cx="87.63" cy="243.4" r="5.07"/><circle class="cls-20" cx="106.16" cy="255.99" r="2.27"/><circle class="cls-20" cx="257.33" cy="215.46" r="3.02"/><circle class="cls-20" cx="272.56" cy="191.6" r="3.31"/></svg>