<svg id="5315dcf4-9ab7-45f5-a3d8-2e76525705db" data-name="Layer 1" xmlns="http://www.w3.org/2000/svg" width="813.15" height="752" viewBox="0 150 700 752"><title>No Packages</title><polygon points="559.73 403.7 347.86 352.67 347.86 752 559.73 696.54 559.73 403.7" fill="#e0e0e0"/><polygon points="559.73 403.7 347.86 352.67 347.86 752 559.73 696.54 559.73 403.7" opacity="0.1"/><polygon points="135.99 403.7 347.86 352.67 347.86 752 135.99 697.65 135.99 403.7" fill="#e0e0e0"/><polygon points="135.99 401.93 347.86 350.91 347.86 752 135.99 697.65 135.99 401.93" opacity="0.17"/><polygon points="346.09 354.44 457.68 261.71 669.54 316.07 557.96 405.46 346.09 354.44" fill="#e0e0e0"/><polygon points="29.05 318.94 137.76 405.46 349.62 354.44 242.03 263.48 29.05 318.94" fill="#e0e0e0"/><polygon points="27.29 317.18 138.64 405.46 350.51 354.44 240.26 261.71 27.29 317.18" opacity="0.05"/><polygon points="135.99 403.7 135.99 697.65 347.86 752 350.72 460.27 135.99 403.7" fill="#e0e0e0"/><polygon points="559.73 696.54 347.86 752 347.86 460.27 559.73 403.7 559.73 696.54" fill="#e0e0e0"/><polygon points="559.73 696.54 347.86 752 347.86 460.27 559.73 403.7 559.73 696.54" opacity="0.07"/><polygon points="475.42 598.92 475.42 695.43 559.73 672.13 559.73 575.63 475.42 598.92" opacity="0.07"/><polygon points="133.22 556.22 251.91 586.17 347.31 508.52 347.31 460.82 135.44 407.58 133.22 556.22" opacity="0.1"/><polygon points="561.39 556.22 442.7 586.17 347.31 508.52 347.31 460.82 559.17 407.58 561.39 556.22" opacity="0.1"/><polygon points="135.99 403.7 27.29 493.55 239.15 546.79 347.86 460.27 135.99 403.7" fill="#e0e0e0"/><polygon points="559.73 403.7 669.54 493.55 458.78 546.79 347.86 460.27 559.73 403.7" fill="#e0e0e0"/></svg>