<svg id="Layer_1" data-name="Layer 1" xmlns="http://www.w3.org/2000/svg" viewBox="0 0 1473 356.09"><defs><style>.cls-1{fill:#fff;}</style></defs><title>settler</title><path class="cls-1" d="M620.48,900.39C518.88,855.54,422,837.82,336.29,834.91l11.15-63.25.68-.32a3.58,3.58,0,0,0,1.88-2.05,3.63,3.63,0,0,0-.12-2.78l-.24-.53a3.69,3.69,0,0,0-1-1.24l1.8-10.17,44.17,7.79,5-28.34-44.17-7.79.29-1.63-3.95-.69-7.12,40.38L321.72,775a8.77,8.77,0,0,0-1.08-.85v-.86a3.64,3.64,0,0,0-1.06-2.57l-.09-.07a15,15,0,0,0,4.45-7h1.94a.74.74,0,0,0,.51-.21.73.73,0,0,0,.22-.52v-7.27a.7.7,0,0,0-.22-.51.69.69,0,0,0-.51-.21h-2a15.06,15.06,0,0,0-28.78,0h-2a.72.72,0,0,0-.52.21.69.69,0,0,0-.21.51V763a.72.72,0,0,0,.21.52.76.76,0,0,0,.52.21h1.93c.1.32.21.63.32.94a14.1,14.1,0,0,0-2.66,11.14,3.62,3.62,0,0,0-3.52,3.63v23.27a3.62,3.62,0,0,0,3.63,3.63h.59a3.64,3.64,0,0,0,2.57-1.06l0,0a8.66,8.66,0,0,0,1.91,2v21.64a6.64,6.64,0,0,0-2.89,1.67,6.55,6.55,0,0,0-1.89,4.19C118.62,838.53,0,900.39,0,900.39V1080H1473V839.31S956.54,1048.73,620.48,900.39ZM332.36,834.78l-6.07-.15a6.53,6.53,0,0,0-1.89-4.17,6.62,6.62,0,0,0-2.45-1.53V806.41a8.67,8.67,0,0,0,2.62-6.22V782.32L343,773.73l-10.77,61Zm-23.5-25.87H311v25.56h-2.18Zm-9.33-38.27s-.06,0-.08.07a3.65,3.65,0,0,0-1.07,2.57v.86a8.83,8.83,0,0,0-1.61,1.38,9.86,9.86,0,0,1,.84-6.93A15.54,15.54,0,0,0,299.53,770.64Z" transform="translate(0 -723.91)"/></svg>