<svg id="Layer_1" data-name="Layer 1" xmlns="http://www.w3.org/2000/svg" viewBox="0 0 2946 356.09"><defs><style>.cls-1{fill:#ffffff;}</style></defs><title>settler-long</title><path class="cls-1" d="M2263,853.35c-423-175.73-790-14-790-14v0s-516.46,209.42-852.52,61.08C518.88,855.63,422,837.91,336.29,835l11.15-63.25.68-.32a3.55,3.55,0,0,0,1.88-2,3.62,3.62,0,0,0-.12-2.78l-.24-.53a3.75,3.75,0,0,0-1-1.24l1.8-10.17,44.17,7.79,5-28.34-44.17-7.79.29-1.63-4-.69-7.12,40.38-22.94,10.71a8.77,8.77,0,0,0-1.08-.85v-.86a3.64,3.64,0,0,0-1.06-2.57l-.09-.07a15,15,0,0,0,4.45-7h1.94a.75.75,0,0,0,.51-.21.73.73,0,0,0,.22-.52v-7.27a.7.7,0,0,0-.22-.51.69.69,0,0,0-.51-.21h-2a15.06,15.06,0,0,0-28.78,0h-2a.73.73,0,0,0-.52.21.69.69,0,0,0-.21.51v7.35a.73.73,0,0,0,.21.52.78.78,0,0,0,.52.21H295c.1.32.21.63.32.94a14.11,14.11,0,0,0-2.66,11.14,3.62,3.62,0,0,0-3.52,3.63V802.8a3.62,3.62,0,0,0,3.61,3.63h.61a3.64,3.64,0,0,0,2.57-1.06,8.85,8.85,0,0,0,1.91,2V829a6.69,6.69,0,0,0-2.89,1.67,6.5,6.5,0,0,0-1.89,4.19C118.62,838.62,0,900.48,0,900.48v179.61H1473V1080H2946V757.5S2686,1029.08,2263,853.35ZM299.45,770.8a3.65,3.65,0,0,0-1.07,2.57v.86a8.83,8.83,0,0,0-1.61,1.38,9.86,9.86,0,0,1,.84-6.93,15.54,15.54,0,0,0,1.92,2.05A.09.09,0,0,0,299.45,770.8ZM311,834.56h-2.18l0-25.56H311Zm15.29.16A6.47,6.47,0,0,0,322,829V806.5a8.67,8.67,0,0,0,2.62-6.22V782.41L343,773.82l-10.77,61,.13,0Z" transform="translate(0 -724)"/></svg>